<?xml version="1.0" standalone="no"?>
<!DOCTYPE svg PUBLIC "-//W3C//DTD SVG 20010904//EN"
 "http://www.w3.org/TR/2001/REC-SVG-20010904/DTD/svg10.dtd">
<svg version="1.0" xmlns="http://www.w3.org/2000/svg"
 width="533.000000pt" height="142.000000pt" viewBox="0 0 533.000000 142.000000"
 preserveAspectRatio="xMidYMid meet">
<metadata>
Created by potrace 1.15, written by Peter Selinger 2001-2017
</metadata>
<g transform="translate(0.000000,142.000000) scale(0.100000,-0.100000)"
fill="#000000" stroke="none">
<path d="M830 806 c0 -393 3 -507 13 -513 6 -4 84 -9 172 -11 220 -5 327 17
640 133 74 27 122 38 183 42 l82 6 -2 235 -3 235 -85 35 c-126 52 -259 55
-372 10 -33 -12 -36 -24 -7 -33 45 -15 43 -89 -5 -114 -48 -25 -98 -18 -142
21 -34 30 -38 31 -67 19 -115 -46 -149 -54 -186 -42 -21 6 -64 35 -97 65 -51
47 -57 57 -48 73 14 21 33 21 96 -3 53 -21 76 -16 163 32 l45 26 0 78 c0 77 0
78 28 83 15 3 28 4 30 2 2 -1 8 -25 15 -51 7 -27 17 -49 22 -48 6 0 51 20 100
45 89 43 92 44 205 47 109 3 120 1 213 -31 l97 -34 0 98 0 99 -545 0 -545 0 0
-504z m385 -29 c8 -12 21 -58 30 -102 8 -43 20 -83 27 -87 7 -5 43 -7 80 -4
61 4 68 3 73 -15 15 -46 -63 -89 -157 -88 -108 2 -106 -1 -145 129 -19 63 -36
122 -39 131 -8 23 42 59 82 59 24 0 38 -7 49 -23z"/>
<path d="M2070 945 l0 -135 101 0 c98 0 100 0 97 23 -3 20 -9 22 -70 25 -68 3
-68 3 -68 32 l0 30 65 0 c62 0 65 1 65 25 0 23 -4 24 -62 27 -60 3 -63 4 -63
28 0 24 3 25 63 28 58 3 62 4 62 27 0 25 -1 25 -95 25 l-95 0 0 -135z"/>
<path d="M3370 945 l0 -135 89 0 c75 0 93 3 122 23 41 28 59 60 59 110 0 92
-62 136 -192 137 l-78 0 0 -135z m182 55 c46 -57 4 -140 -72 -140 l-40 0 0 86
0 87 47 -6 c32 -3 53 -12 65 -27z"/>
<path d="M2316 968 c-9 -12 -16 -27 -16 -33 0 -16 41 -51 68 -60 12 -3 22 -11
22 -16 0 -16 -25 -20 -53 -10 -25 10 -27 8 -27 -13 0 -46 105 -43 130 4 17 31
3 58 -41 80 -60 31 -47 54 16 30 24 -9 26 -8 23 12 -3 20 -10 23 -55 26 -44 3
-53 0 -67 -20z"/>
<path d="M2480 854 l0 -134 30 0 c29 0 30 2 30 44 l0 43 40 -1 c31 0 46 5 66
26 35 35 37 98 4 133 -20 22 -31 24 -96 24 l-74 0 0 -135z"/>
<path d="M2728 979 c-10 -5 -18 -19 -18 -29 0 -24 0 -24 36 -6 19 11 33 12 46
5 26 -14 22 -26 -12 -34 -39 -9 -80 -42 -80 -65 0 -11 11 -27 25 -36 20 -13
31 -14 55 -5 22 7 36 7 48 0 22 -14 72 5 72 27 0 10 -5 14 -15 10 -12 -4 -15
5 -15 53 0 72 -17 91 -81 91 -24 0 -52 -5 -61 -11z"/>
<path d="M2920 900 l0 -90 30 0 c29 0 29 1 32 61 3 65 19 88 52 76 12 -5 16
-20 16 -72 l0 -65 30 0 30 0 0 68 c0 86 -16 112 -69 112 -20 0 -42 -5 -49 -12
-9 -9 -12 -9 -12 0 0 7 -13 12 -30 12 l-30 0 0 -90z"/>
<path d="M3168 979 c-10 -5 -18 -19 -18 -29 0 -24 0 -24 34 -6 30 15 66 11 66
-9 0 -6 -18 -17 -40 -24 -49 -15 -76 -50 -61 -80 14 -26 42 -34 75 -21 18 7
33 7 46 0 12 -7 28 -7 44 0 28 10 36 40 11 40 -11 0 -15 13 -15 54 0 36 -5 60
-16 70 -18 18 -99 21 -126 5z"/>
<path d="M3680 931 c0 -75 12 -108 46 -123 21 -10 31 -9 55 4 16 10 29 13 29
8 0 -6 14 -10 30 -10 l30 0 0 90 0 90 -30 0 -30 0 0 -65 c0 -55 -3 -66 -21
-75 -35 -19 -49 3 -49 76 l0 64 -30 0 c-30 0 -30 0 -30 -59z"/>
<path d="M3935 965 c-18 -17 -25 -35 -25 -62 0 -49 21 -78 64 -93 47 -15 116
2 116 30 0 16 -3 17 -30 7 -36 -14 -83 0 -88 26 -3 15 5 17 63 17 l67 0 -7 28
c-11 47 -43 72 -92 72 -33 0 -50 -6 -68 -25z"/>
<path d="M4327 970 c-76 -60 -9 -184 89 -165 92 17 116 131 37 173 -34 19 -97
15 -126 -8z"/>
<path d="M1795 374 c-62 -13 -118 -31 -180 -57 -212 -89 -456 -134 -655 -122
l-85 5 70 -25 c116 -43 200 -57 335 -57 149 0 230 15 414 79 168 57 256 79
384 95 l104 12 -58 29 c-31 16 -75 30 -96 32 -21 1 -42 5 -45 9 -7 7 -156 6
-188 0z"/>
</g>
</svg>
