<?xml version="1.0" standalone="no"?>
<!DOCTYPE svg PUBLIC "-//W3C//DTD SVG 20010904//EN"
 "http://www.w3.org/TR/2001/REC-SVG-20010904/DTD/svg10.dtd">
<svg version="1.0" xmlns="http://www.w3.org/2000/svg"
 width="850.000000pt" height="400.000000pt" viewBox="0 0 850.000000 400.000000"
 preserveAspectRatio="xMidYMid meet">
<metadata>
Created by potrace 1.15, written by Peter Selinger 2001-2017
</metadata>
<g transform="translate(0.000000,400.000000) scale(0.100000,-0.100000)"
fill="#000000" stroke="none">
<path d="M4445 2479 c-130 -12 -251 -101 -296 -217 -32 -80 -32 -214 0 -293
62 -159 218 -240 439 -226 138 9 137 8 155 78 14 57 14 60 -5 70 -17 9 -25 5
-53 -25 -42 -46 -90 -66 -157 -66 -112 0 -186 46 -229 143 -52 119 -31 354 38
419 61 56 145 79 221 59 47 -13 109 -62 123 -98 6 -16 17 -23 34 -23 26 0 26
1 23 72 l-3 73 -60 16 c-75 20 -152 26 -230 18z"/>
<path d="M3570 2466 c-6 -8 -33 -23 -58 -32 -65 -24 -71 -32 -44 -53 35 -26
42 -76 42 -338 0 -206 -2 -244 -16 -257 -8 -9 -20 -16 -25 -16 -5 0 -9 -6 -9
-12 0 -18 192 -17 198 0 2 7 -1 12 -6 12 -6 0 -18 7 -26 16 -14 13 -16 60 -16
355 0 281 -2 339 -14 339 -7 0 -19 -7 -26 -14z"/>
<path d="M5280 2390 c-60 -60 27 -144 98 -94 28 19 30 74 4 97 -25 23 -78 21
-102 -3z"/>
<path d="M3765 2202 c-28 -7 -30 -10 -33 -60 -3 -56 11 -69 39 -35 21 25 78
45 109 38 39 -9 62 -38 64 -82 l1 -37 -63 -2 c-148 -6 -231 -106 -183 -221 25
-61 125 -82 203 -42 l41 21 37 -21 c49 -27 55 -27 101 10 39 31 44 55 9 44
-31 -10 -40 25 -40 155 0 132 -9 168 -55 210 -24 22 -36 25 -113 27 -48 1
-100 -2 -117 -5z m169 -218 c13 -5 16 -22 16 -85 l0 -78 -39 -12 c-72 -21
-131 31 -117 105 11 56 82 92 140 70z"/>
<path d="M4865 2202 c-28 -7 -30 -10 -33 -60 -3 -56 11 -69 39 -35 21 25 78
45 109 38 39 -9 60 -35 63 -80 l2 -39 -63 -3 c-128 -6 -192 -58 -192 -157 0
-47 4 -61 28 -87 24 -27 37 -33 83 -36 53 -5 120 14 134 36 3 6 21 -1 42 -14
46 -32 57 -31 104 6 39 31 44 55 9 44 -31 -10 -40 25 -40 155 0 132 -9 168
-55 210 -24 22 -36 25 -113 27 -48 1 -100 -2 -117 -5z m169 -218 c13 -5 16
-22 16 -78 0 -39 -4 -77 -9 -85 -6 -9 -28 -14 -56 -15 -39 -1 -50 3 -71 27
-65 76 24 188 120 151z"/>
<path d="M5310 2189 c-19 -10 -43 -18 -53 -19 -28 0 -32 -28 -6 -49 23 -19 24
-23 24 -178 0 -154 -1 -158 -23 -168 -42 -18 -17 -27 83 -28 98 -2 127 8 83
28 -23 10 -23 13 -26 223 l-2 212 -23 -1 c-12 -1 -38 -9 -57 -20z"/>
<path d="M6005 2202 c-28 -7 -30 -10 -33 -60 -3 -56 11 -69 39 -35 21 25 78
45 109 38 39 -9 60 -35 63 -80 l2 -39 -62 -2 c-66 -3 -137 -29 -165 -60 -21
-24 -40 -96 -32 -120 19 -59 30 -76 55 -89 39 -21 102 -19 158 6 l48 20 34
-20 c44 -27 53 -26 95 5 35 27 48 61 18 50 -36 -14 -44 11 -44 146 0 140 -9
176 -55 218 -24 22 -36 25 -113 27 -48 1 -100 -2 -117 -5z m169 -218 c13 -5
16 -22 16 -79 0 -85 -11 -100 -72 -100 -91 0 -122 125 -41 169 29 16 71 20 97
10z"/>
<path d="M5445 2190 c-3 -6 5 -14 19 -20 25 -9 166 -189 166 -211 0 -21 -115
-158 -148 -176 -17 -10 -31 -22 -29 -27 2 -5 40 -10 85 -11 62 -1 82 2 82 12
0 8 -7 16 -15 19 -8 4 -15 11 -15 17 0 14 70 117 79 117 4 0 23 -25 44 -57 35
-52 36 -57 21 -74 -9 -10 -14 -21 -11 -26 8 -13 200 -9 204 4 2 6 -6 14 -17
18 -22 7 -170 198 -170 220 0 12 103 142 129 162 9 7 24 13 34 13 9 0 17 7 17
15 0 12 -17 15 -90 15 -55 0 -90 -4 -90 -10 0 -6 7 -13 15 -16 8 -4 15 -15 15
-26 0 -24 -60 -109 -71 -102 -16 9 -69 92 -69 107 0 8 7 17 15 21 8 3 15 10
15 16 0 13 -207 14 -215 0z"/>
<path d="M2231 1870 c-55 -56 -54 -156 2 -190 114 -70 212 75 133 195 -13 20
-25 25 -60 25 -36 0 -50 -6 -75 -30z"/>
</g>
</svg>
