<?xml version="1.0" encoding="utf-8"?>
<!-- Generator: Adobe Illustrator 16.0.3, SVG Export Plug-In . SVG Version: 6.00 Build 0)  -->
<!DOCTYPE svg PUBLIC "-//W3C//DTD SVG 1.1//EN" "http://www.w3.org/Graphics/SVG/1.1/DTD/svg11.dtd">
<svg version="1.1" id="Capa_1" xmlns="http://www.w3.org/2000/svg" xmlns:xlink="http://www.w3.org/1999/xlink" x="0px" y="0px"
	 width="141px" height="35px" viewBox="0 0 141 35" enable-background="new 0 0 141 35" xml:space="preserve">
<g id="login_x5F_logo_x5F_bankia.png">
	<g>
		<path fill-rule="evenodd" clip-rule="evenodd" fill="#BCC72F" d="M20.255,13.874c1.429-1.549,2.085-3.157,2.085-5.117
			c0-5.061-4.408-8.693-11.976-8.693C7.268,0.064,3.262,0.695,0,1.671v33.157l4.625-1.908c2.623,1.37,6.216,2.145,9.374,2.145
			c9.351,0,14.183-4.347,14.183-10.952C28.182,18.816,25.258,15.002,20.255,13.874z M13.702,30.122c-2.86,0-5.544-0.658-7.748-1.85
			V5.602c1.606-0.479,3.101-0.659,4.411-0.659c4.469,0,6.196,2.444,6.196,5.002c0,2.141-1.31,4.522-4.169,6.607
			c6.862,0.422,9.595,2.856,9.595,7.022C21.986,27.623,19.301,30.122,13.702,30.122z M107.822,34.409h5.722V6.075h-5.722V34.409z
			 M130.164,5.539c-3.278,0-7.034,0.834-10.725,2.68l1.311,4.761c3.273-1.727,6.313-2.5,8.695-2.5c3.877,0,5.778,1.607,5.841,5.239
			c-7.623,0.657-12.448,2.321-15.131,4.824c-1.845,1.726-2.62,3.928-2.62,6.423c0,4.11,3.333,8.1,10.722,8.1
			c2.796,0,5.598-0.655,8.039-2.145L141,34.828V15.182C141,9.112,137.369,5.539,130.164,5.539z M135.286,28.516
			c-2.086,1.371-4.233,1.847-6.255,1.847c-3.458,0-5.539-1.552-5.539-3.872c0-2.855,2.138-5.3,11.794-6.307V28.516z M97.044,6.075
			L84.771,20.243l12.03,14.166h7.272L91.978,20.123l12.268-14.048H97.044z M73.927,5.539c-2.919,0-6.076,0.774-9.293,2.562
			L59.93,5.779v28.63h5.717v-21.55c2.442-1.488,4.768-2.083,6.848-2.083c1.731,0,3.161,0.476,3.934,1.251
			c0.893,0.891,1.314,2.143,1.314,4.463v17.917h5.715V15.002c0-3.094-0.832-5.295-2.32-6.843
			C79.525,6.493,76.968,5.539,73.927,5.539z M43.31,5.539c-3.276,0-7.032,0.834-10.724,2.68l1.31,4.761
			c3.276-1.727,6.315-2.5,8.698-2.5c3.874,0,5.78,1.607,5.84,5.239c-7.625,0.657-12.451,2.321-15.131,4.824
			c-1.849,1.726-2.625,3.928-2.625,6.423c0,4.11,3.337,8.1,10.725,8.1c2.8,0,5.598-0.655,8.04-2.145l4.708,1.908V15.182
			C54.15,9.112,50.516,5.539,43.31,5.539z M48.433,28.516c-2.085,1.371-4.23,1.847-6.255,1.847c-3.456,0-5.54-1.552-5.54-3.872
			c0-2.855,2.144-5.3,11.795-6.307V28.516z"/>
	</g>
</g>
</svg>
