<?xml version="1.0" standalone="no"?>
<!DOCTYPE svg PUBLIC "-//W3C//DTD SVG 20010904//EN"
 "http://www.w3.org/TR/2001/REC-SVG-20010904/DTD/svg10.dtd">
<svg version="1.0" xmlns="http://www.w3.org/2000/svg"
 width="800.000000pt" height="462.000000pt" viewBox="0 0 800.000000 462.000000"
 preserveAspectRatio="xMidYMid meet">
<metadata>
Created by potrace 1.15, written by Peter Selinger 2001-2017
</metadata>
<g transform="translate(0.000000,462.000000) scale(0.100000,-0.100000)"
fill="#000000" stroke="none">
<path d="M966 3149 c-31 -63 -36 -81 -36 -144 0 -85 26 -144 109 -249 80 -103
141 -194 168 -253 34 -74 29 -146 -17 -232 -18 -34 -37 -61 -41 -61 -5 0 -9
22 -9 49 0 75 -15 104 -139 274 -64 87 -128 176 -143 198 -31 48 -50 124 -42
171 l6 33 -21 -25 c-35 -43 -61 -125 -61 -196 0 -84 20 -124 143 -292 156
-210 152 -203 152 -296 0 -74 -3 -86 -33 -138 -19 -32 -37 -58 -41 -58 -5 0
-11 26 -14 59 -7 78 -20 102 -137 261 -55 74 -114 161 -130 192 -29 55 -31 57
-63 51 -61 -11 -200 -63 -261 -97 -75 -42 -148 -114 -176 -172 -24 -52 -26
-127 -5 -178 52 -124 256 -241 510 -292 126 -26 461 -26 589 -1 194 39 378
125 456 214 52 59 70 102 70 163 0 92 -52 167 -169 244 -63 41 -199 98 -269
112 -40 8 -42 12 -47 72 -7 81 -29 124 -148 287 -146 201 -162 231 -160 313 0
34 -1 62 -2 62 -2 0 -20 -32 -39 -71z"/>
<path d="M6430 2791 c-58 -29 -96 -54 -98 -65 -3 -15 1 -16 33 -10 27 5 41 2
55 -11 18 -17 20 -32 20 -178 l0 -159 -27 6 c-133 30 -186 28 -262 -7 -108
-50 -172 -160 -172 -296 0 -122 45 -204 137 -250 89 -45 190 -36 279 25 20 13
38 24 40 24 2 0 7 -16 11 -36 4 -19 12 -38 18 -40 19 -7 171 63 174 81 3 14
-2 16 -28 10 -23 -5 -36 -2 -51 11 -18 16 -19 35 -19 481 0 254 -3 463 -7 462
-5 0 -51 -22 -103 -48z m-59 -462 c70 -35 69 -31 69 -233 l0 -183 -53 -26
c-64 -33 -145 -36 -197 -8 -91 48 -141 199 -108 329 14 55 79 126 130 141 43
13 113 4 159 -20z"/>
<path d="M2353 2730 c-101 -40 -173 -140 -173 -240 0 -56 44 -134 98 -173 26
-19 104 -62 174 -96 95 -46 136 -72 162 -102 69 -81 54 -197 -35 -256 -59 -39
-167 -45 -233 -13 -54 26 -99 79 -116 138 -13 40 -36 56 -45 30 -2 -7 -1 -56
3 -108 l7 -94 45 -14 c25 -7 97 -14 165 -15 114 -1 123 0 185 29 78 37 124 86
145 156 32 108 11 193 -65 261 -46 42 -80 61 -228 129 -124 57 -179 138 -152
225 25 78 81 113 180 113 108 0 169 -44 198 -142 12 -42 22 -58 35 -58 15 0
17 12 17 108 l0 107 -52 13 c-29 8 -100 15 -158 18 -90 4 -113 1 -157 -16z"/>
<path d="M4335 2528 c-38 -57 -111 -134 -151 -159 -19 -11 -34 -25 -34 -30 0
-5 29 -9 65 -9 l65 0 0 -182 c0 -203 7 -243 51 -293 34 -38 121 -72 160 -62
29 8 127 92 117 102 -3 3 -27 -1 -52 -9 -59 -20 -81 -20 -116 0 -52 31 -60 66
-60 264 l0 180 94 0 c76 0 95 3 100 16 16 41 10 44 -94 44 l-100 0 0 90 c0 50
-4 90 -9 90 -4 0 -21 -19 -36 -42z"/>
<path d="M3093 2390 c-33 -8 -103 -47 -140 -79 -36 -30 -46 -67 -28 -101 16
-31 27 -31 72 -2 19 11 21 18 12 34 -25 47 32 108 100 108 61 0 117 -89 109
-173 -3 -30 -7 -33 -133 -82 -147 -57 -171 -74 -186 -127 -25 -94 46 -178 148
-178 38 0 135 39 147 59 12 20 25 12 40 -24 8 -19 18 -35 21 -35 4 0 40 16 82
35 47 22 73 39 70 47 -2 7 -11 11 -18 9 -8 -2 -21 -5 -29 -7 -41 -11 -45 7
-50 220 -5 188 -7 207 -26 233 -40 53 -120 80 -191 63z m127 -385 l0 -94 -43
-26 c-62 -36 -119 -34 -158 4 -59 59 -33 116 75 165 134 62 126 65 126 -49z"/>
<path d="M3798 2391 c-41 -9 -76 -29 -122 -73 l-31 -30 -3 51 c-2 28 -8 51
-13 51 -6 0 -49 -19 -95 -41 -85 -41 -104 -67 -47 -61 53 6 58 -11 61 -212 4
-214 -1 -233 -55 -238 -26 -2 -38 -8 -38 -18 0 -13 22 -15 135 -15 113 0 135
2 135 15 0 10 -12 16 -33 18 -24 3 -35 10 -43 28 -5 14 -9 104 -9 199 l0 174
28 27 c30 29 103 64 134 64 35 0 87 -31 108 -65 18 -29 20 -49 20 -209 0 -103
-4 -185 -10 -197 -7 -12 -21 -19 -39 -19 -27 0 -47 -21 -34 -34 4 -3 66 -6
140 -6 126 0 133 1 133 20 0 16 -7 20 -34 20 -18 0 -38 6 -44 13 -6 7 -12 94
-14 202 -4 211 -13 244 -78 298 -26 22 -92 50 -110 46 -3 -1 -21 -5 -42 -8z"/>
<path d="M4851 2384 c-88 -31 -161 -93 -161 -136 0 -16 14 -52 25 -66 1 -2 19
5 38 14 35 17 36 19 30 59 -5 39 -3 44 29 69 88 67 184 -3 176 -129 l-3 -50
-90 -35 c-195 -77 -214 -92 -222 -163 -7 -63 18 -111 71 -137 68 -32 129 -24
209 29 32 21 40 22 48 10 5 -8 9 -22 9 -32 0 -10 6 -20 13 -23 21 -8 151 58
155 78 3 15 0 16 -28 6 -23 -8 -35 -7 -43 1 -8 8 -14 78 -17 209 -4 168 -8
201 -23 227 -42 68 -134 98 -216 69z m139 -382 l0 -98 -47 -24 c-55 -27 -97
-28 -132 -2 -73 53 -57 124 38 167 31 14 70 32 86 40 54 25 55 23 55 -83z"/>
<path d="M5318 2356 c-93 -44 -111 -66 -53 -66 24 0 37 -6 45 -19 15 -30 13
-406 -2 -419 -7 -6 -26 -12 -43 -14 -19 -2 -31 -9 -33 -20 -3 -16 8 -18 132
-18 129 0 136 1 136 20 0 15 -7 20 -28 20 -50 0 -52 9 -52 216 l0 193 33 24
c79 60 130 70 184 37 64 -38 68 -54 68 -256 0 -196 -4 -210 -53 -216 -16 -2
-28 -10 -30 -21 -3 -16 7 -17 135 -15 115 3 138 6 138 18 0 10 -12 16 -38 18
-30 3 -40 9 -47 28 -6 14 -10 101 -10 193 0 177 -6 214 -47 269 -33 44 -78 65
-139 65 -57 0 -119 -29 -163 -77 -14 -14 -28 -26 -32 -26 -5 0 -9 24 -11 53
l-3 54 -87 -41z"/>
<path d="M6930 2390 c-64 -13 -91 -30 -144 -83 -81 -84 -106 -195 -71 -314 32
-109 164 -203 283 -203 86 0 222 49 222 81 0 17 -1 17 -42 0 -98 -43 -215 -34
-280 20 -47 37 -86 118 -94 192 l-7 57 169 1 c93 0 189 1 214 2 l45 2 -1 46
c-3 83 -62 165 -136 187 -50 16 -119 21 -158 12z m128 -62 c34 -21 72 -82 72
-117 0 -29 -25 -33 -181 -30 -161 3 -164 6 -131 74 47 97 149 128 240 73z"/>
<path d="M7613 2393 c-23 -5 -75 -51 -110 -98 l-22 -30 0 63 c-1 34 -5 62 -10
62 -5 0 -36 -15 -70 -34 -33 -19 -69 -37 -80 -41 -12 -3 -21 -14 -21 -24 0
-14 6 -17 30 -13 57 8 60 -1 60 -210 0 -111 -4 -197 -10 -209 -8 -13 -21 -19
-45 -19 -28 0 -35 -4 -35 -20 0 -19 7 -20 135 -20 127 0 135 1 135 19 0 16 -8
20 -37 23 l-38 3 -3 172 c-2 157 -1 176 18 217 34 71 127 100 183 56 14 -11
28 -20 31 -20 3 0 6 27 6 60 0 52 -2 60 -19 60 -10 0 -31 2 -47 4 -16 2 -39 2
-51 -1z"/>
</g>
</svg>
