<?xml version="1.0" standalone="no"?>
<!DOCTYPE svg PUBLIC "-//W3C//DTD SVG 20010904//EN"
 "http://www.w3.org/TR/2001/REC-SVG-20010904/DTD/svg10.dtd">
<svg version="1.0" xmlns="http://www.w3.org/2000/svg"
 width="580.000000pt" height="180.000000pt" viewBox="0 0 580.000000 180.000000"
 preserveAspectRatio="xMidYMid meet">
<metadata>
Created by potrace 1.15, written by Peter Selinger 2001-2017
</metadata>
<g transform="translate(0.000000,180.000000) scale(0.100000,-0.100000)"
fill="#000000" stroke="none">
<path d="M1245 1277 c-129 -62 -197 -209 -166 -359 14 -68 42 -111 97 -153 38
-29 71 -42 237 -91 67 -20 97 -51 97 -100 0 -69 -82 -115 -170 -95 -57 13 -87
35 -111 84 -12 23 -23 43 -24 45 -1 2 -41 -7 -89 -20 -60 -16 -86 -27 -86 -38
0 -34 59 -137 100 -174 72 -65 119 -81 240 -81 88 0 113 4 156 23 106 48 174
151 182 278 6 89 -14 154 -64 213 -45 52 -108 84 -227 116 -50 14 -103 33
-116 43 -34 25 -46 64 -29 99 17 36 52 53 108 53 55 0 103 -27 126 -72 9 -18
18 -35 20 -37 3 -4 145 49 157 60 11 9 -38 106 -72 142 -51 56 -116 80 -221
84 -84 4 -101 1 -145 -20z"/>
<path d="M2422 798 l3 -493 42 -3 c39 -3 44 -1 54 25 6 15 17 41 23 57 l12 29
23 -36 c31 -50 72 -77 128 -84 94 -11 181 35 223 116 99 195 58 529 -75 611
-18 11 -53 23 -78 26 -57 8 -121 -21 -154 -68 l-23 -33 0 173 0 172 -90 0 -90
0 2 -492z m333 76 c14 -15 28 -43 32 -63 13 -59 9 -252 -6 -294 -38 -111 -145
-101 -172 17 -16 75 -8 271 14 313 31 59 91 71 132 27z"/>
<path d="M4037 1283 c-4 -3 -7 -76 -7 -162 0 -147 -1 -154 -16 -132 -19 27
-88 60 -124 61 -43 0 -98 -20 -130 -47 -70 -58 -105 -177 -103 -353 1 -180 48
-297 137 -340 81 -39 165 -19 217 52 l28 39 3 -48 3 -48 83 -3 82 -3 0 496 0
495 -83 0 c-46 0 -87 -3 -90 -7z m-55 -394 c37 -20 48 -69 48 -221 0 -125 -3
-147 -20 -176 -42 -68 -107 -63 -145 13 -27 56 -28 247 -2 318 27 69 69 93
119 66z"/>
<path d="M4952 798 l3 -493 85 0 85 0 3 493 2 492 -90 0 -90 0 2 -492z"/>
<path d="M5220 795 l0 -496 88 3 87 3 3 493 2 492 -90 0 -90 0 0 -495z"/>
<path d="M1983 1040 c-108 -23 -182 -92 -207 -192 -7 -29 -12 -27 115 -44 47
-6 47 -6 59 30 15 47 44 66 101 66 58 0 80 -22 87 -89 l4 -49 -58 -7 c-179
-21 -259 -60 -303 -148 -41 -84 -29 -206 27 -260 87 -83 222 -73 304 23 l37
42 3 -53 3 -54 85 -3 85 -3 -3 283 c-1 156 -7 300 -12 320 -14 51 -56 97 -108
119 -51 22 -160 32 -219 19z m155 -455 c-7 -76 -31 -124 -77 -147 -38 -19 -85
-9 -101 22 -19 36 -12 97 16 129 25 30 93 59 143 60 23 1 24 -1 19 -64z"/>
<path d="M3255 1040 c-101 -22 -157 -61 -191 -134 -40 -86 -39 -87 89 -101 52
-6 57 -5 57 14 0 10 12 33 26 50 22 27 32 31 75 31 66 0 89 -23 89 -89 l0 -49
-87 -12 c-123 -17 -183 -42 -231 -94 -65 -71 -80 -180 -37 -269 55 -116 240
-130 330 -24 34 39 35 40 35 14 0 -14 4 -37 10 -52 10 -25 12 -26 91 -23 l81
3 -1 270 c-2 282 -8 339 -43 388 -44 61 -190 100 -293 77z m145 -450 c0 -78
-28 -136 -75 -156 -57 -23 -101 4 -112 69 -10 64 37 117 122 138 64 15 65 14
65 -51z"/>
<path d="M4513 1040 c-148 -35 -244 -207 -230 -414 14 -215 146 -350 327 -333
96 8 182 70 228 162 39 80 39 83 -15 90 -26 3 -65 8 -85 10 -30 4 -38 2 -38
-10 0 -30 -30 -75 -61 -91 -65 -33 -137 8 -158 91 -23 92 -38 85 189 85 l200
0 0 53 c0 70 -26 173 -55 224 -63 107 -185 161 -302 133z m111 -140 c33 -12
53 -45 62 -97 l7 -43 -111 0 c-109 0 -110 0 -105 23 15 66 27 90 57 108 35 21
53 23 90 9z"/>
</g>
</svg>
